<svg width="141" height="74" viewBox="0 0 141 74" fill="none" xmlns="http://www.w3.org/2000/svg">
<path d="M16.52 15.8V55H8.848V23.584L1.176 26.72V20.056L11.648 15.8H16.52ZM38.6754 55.56C36.0994 55.56 33.7474 55.0747 31.6194 54.104C29.4914 53.1333 27.6808 51.7707 26.1874 50.016C24.6941 48.2613 23.5181 46.1333 22.6594 43.632C21.8381 41.1307 21.4274 38.368 21.4274 35.344C21.4274 32.3573 21.8381 29.6133 22.6594 27.112C23.5181 24.6107 24.6941 22.4827 26.1874 20.728C27.7181 18.9733 29.5474 17.6107 31.6754 16.64C33.8034 15.6693 36.1368 15.184 38.6754 15.184C41.2514 15.184 43.6034 15.6693 45.7314 16.64C47.8594 17.6107 49.6701 18.9733 51.1634 20.728C52.6568 22.4827 53.8141 24.6107 54.6354 27.112C55.4941 29.6133 55.9234 32.3573 55.9234 35.344C55.9234 38.368 55.5128 41.1307 54.6914 43.632C53.8701 46.1333 52.6941 48.2613 51.1634 50.016C49.6701 51.7707 47.8594 53.1333 45.7314 54.104C43.6034 55.0747 41.2514 55.56 38.6754 55.56ZM38.6754 48.896C41.6994 48.896 44.0888 47.6827 45.8434 45.256C47.5981 42.8293 48.4754 39.5253 48.4754 35.344C48.4754 31.2373 47.5794 27.9707 45.7874 25.544C44.0328 23.08 41.6621 21.848 38.6754 21.848C35.6888 21.848 33.3181 23.08 31.5634 25.544C29.8088 27.9707 28.9314 31.2373 28.9314 35.344C28.9314 39.5253 29.8088 42.8293 31.5634 45.256C33.3181 47.6827 35.6888 48.896 38.6754 48.896ZM77.0114 55.56C74.4354 55.56 72.0834 55.0747 69.9554 54.104C67.8274 53.1333 66.0167 51.7707 64.5234 50.016C63.03 48.2613 61.854 46.1333 60.9954 43.632C60.174 41.1307 59.7634 38.368 59.7634 35.344C59.7634 32.3573 60.174 29.6133 60.9954 27.112C61.854 24.6107 63.03 22.4827 64.5234 20.728C66.054 18.9733 67.8834 17.6107 70.0114 16.64C72.1394 15.6693 74.4727 15.184 77.0114 15.184C79.5874 15.184 81.9394 15.6693 84.0674 16.64C86.1954 17.6107 88.006 18.9733 89.4994 20.728C90.9927 22.4827 92.15 24.6107 92.9714 27.112C93.83 29.6133 94.2594 32.3573 94.2594 35.344C94.2594 38.368 93.8487 41.1307 93.0274 43.632C92.206 46.1333 91.03 48.2613 89.4994 50.016C88.006 51.7707 86.1954 53.1333 84.0674 54.104C81.9394 55.0747 79.5874 55.56 77.0114 55.56ZM77.0114 48.896C80.0354 48.896 82.4247 47.6827 84.1794 45.256C85.934 42.8293 86.8114 39.5253 86.8114 35.344C86.8114 31.2373 85.9154 27.9707 84.1234 25.544C82.3687 23.08 79.998 21.848 77.0114 21.848C74.0247 21.848 71.654 23.08 69.8994 25.544C68.1447 27.9707 67.2674 31.2373 67.2674 35.344C67.2674 39.5253 68.1447 42.8293 69.8994 45.256C71.654 47.6827 74.0247 48.896 77.0114 48.896ZM106.387 35.68C103.699 35.68 101.534 34.7467 99.8913 32.88C98.2486 31.0133 97.4273 28.568 97.4273 25.544C97.4273 22.5573 98.2486 20.1307 99.8913 18.264C101.534 16.3973 103.699 15.464 106.387 15.464C109.038 15.464 111.185 16.3973 112.827 18.264C114.47 20.1307 115.291 22.5573 115.291 25.544C115.291 28.568 114.47 31.0133 112.827 32.88C111.222 34.7467 109.075 35.68 106.387 35.68ZM106.387 31.592C107.731 31.592 108.777 31.0507 109.523 29.968C110.307 28.8853 110.699 27.4107 110.699 25.544C110.699 23.7147 110.307 22.2587 109.523 21.176C108.739 20.0933 107.694 19.552 106.387 19.552C105.043 19.552 103.979 20.0933 103.195 21.176C102.449 22.2587 102.057 23.7147 102.019 25.544C102.057 27.4107 102.449 28.8853 103.195 29.968C103.942 31.0507 105.006 31.592 106.387 31.592ZM109.915 55H104.203L126.379 15.8H132.147L109.915 55ZM130.467 55.28C127.779 55.28 125.614 54.3467 123.971 52.48C122.329 50.6133 121.507 48.168 121.507 45.144C121.507 42.1573 122.329 39.7307 123.971 37.864C125.614 35.9973 127.779 35.064 130.467 35.064C133.118 35.064 135.265 35.9973 136.907 37.864C138.55 39.7307 139.371 42.1573 139.371 45.144C139.371 48.168 138.55 50.6133 136.907 52.48C135.302 54.3467 133.155 55.28 130.467 55.28ZM130.467 51.192C131.811 51.192 132.857 50.6507 133.603 49.568C134.387 48.4853 134.779 47.0107 134.779 45.144C134.779 43.3147 134.387 41.8587 133.603 40.776C132.819 39.6933 131.774 39.152 130.467 39.152C129.123 39.152 128.059 39.6933 127.275 40.776C126.529 41.8587 126.137 43.3147 126.099 45.144C126.137 47.0107 126.529 48.4853 127.275 49.568C128.022 50.6507 129.086 51.192 130.467 51.192Z" fill="#222222"/>
<line x1="1" y1="72.5" x2="140" y2="72.5" stroke="#222222" stroke-width="3"/>
</svg>
